PathFileType	4	(X/Y/Z)	D:\TRACE\spotREDO_2-26-24\spot_justArm_Motion_2_1-v60.trc
DataRate	CameraRate	NumFrames	NumMarkers	Units	OrigDataRate	OrigDataStartFrame	OrigNumFrames
100.00	100.00	      13	9	mm	100.00	2626	      7000
Frame#	Time	front left toe			Front right toe			aft left toe			aft right toe			Arm			FL body			FR body			AL Body			AR Body			
		X1	Y1	Z1	X2	Y2	Z2	X3	Y3	Z3	X4	Y4	Z4	X5	Y5	Z5	X6	Y6	Z6	X7	Y7	Z7	X8	Y8	Z8	X9	Y9	Z9	

2626	26.250	-166.05528	41.83799	-175.29095	259.37000	31.22526	-102.36542	-274.12497	-16.51457	440.13422	154.06224	-16.87152	451.28909	-6.02415	700.27185	-807.44476	19.15977	564.88824	-212.20837	175.08319	568.35895	-186.59563	-135.14183	522.38208	656.61462	10.30593	521.11108	683.34082	
2627	26.260	-166.74182	41.81650	-175.34132	258.37674	31.05448	-102.80245	-274.83578	-16.27361	439.93704	153.18990	-17.09692	450.95773	-6.75953	699.56610	-807.32184	18.65419	565.11670	-211.98828	173.36467	568.89630	-186.69810	-135.21423	521.89435	656.76166	10.16213	520.76819	683.49548	
2628	26.270	-167.67499	41.80432	-175.28716	257.79987	31.69920	-102.47830	-275.56311	-16.19397	440.08154	152.29799	-17.03583	451.08292	-7.40437	699.14069	-807.08331	18.21868	565.29688	-211.87038	172.89223	569.35956	-186.71733	-135.24719	521.57935	657.00433	9.81782	520.62604	683.49738	
2629	26.280	-168.58362	41.52621	-175.45059	256.78925	31.47941	-102.58315	-276.31674	-15.83455	439.89877	151.66545	-16.47201	451.26926	-8.34835	698.94403	-806.88959	19.24932	565.53809	-211.89125	172.51614	569.70544	-186.57040	-135.21648	521.02258	657.27594	10.21645	519.98053	683.60199	
2630	26.290	-169.49580	41.50369	-175.82759	256.16629	31.01821	-102.82349	-276.92389	-15.57830	439.79260	151.10544	-16.37399	451.19330	-8.99728	698.83783	-806.70306	18.82517	565.73889	-211.79845	172.14958	570.00745	-186.42607	-135.45782	520.38934	657.33905	9.92613	519.57996	683.65063	
2631	26.300	-170.09222	41.55698	-175.91295	254.99931	30.87883	-103.12660	-278.04361	-15.28172	439.91724	150.21013	-16.31982	450.97516	-8.31190	698.95166	-804.78210	18.37370	565.91510	-211.73016	171.66661	570.29010	-186.24213	-135.44774	519.59222	657.36932	11.50312	518.81104	683.89935	
2632	26.310	-170.97328	41.29596	-176.01048	255.15257	31.23550	-102.89100	-278.73752	-15.01044	439.75198	149.12889	-16.09826	451.12186	-10.26880	699.33734	-806.59656	17.93472	565.98462	-211.60139	171.03076	570.70551	-186.12521	-135.49338	519.03418	657.63025	11.43505	518.42651	684.03552	
2633	26.320	-171.66252	40.98289	-175.88718	253.70584	30.55243	-103.27106	-279.62430	-14.73212	439.63647	148.84837	-15.80584	451.04578	-10.97583	699.80371	-806.37592	17.12532	566.29236	-211.40321	170.52658	571.13464	-186.11653	-135.61801	518.48358	657.76575	11.07739	517.83569	683.97900	
2634	26.330	-172.60596	40.88886	-175.85345	252.73431	30.52830	-103.58635	-280.44067	-14.35287	439.64099	147.64172	-15.68782	450.93192	-11.45379	700.25146	-806.21704	16.41417	566.71320	-211.20442	169.68623	571.61578	-186.11841	-135.14078	517.25604	657.78290	11.16740	517.23688	684.12494	
2635	26.340	-173.73227	40.90296	-176.13951	251.69237	30.84382	-103.47084	-281.24341	-14.16792	439.86591	146.63557	-15.51668	451.05420	-11.69692	700.86603	-806.04938	15.65045	567.08325	-211.09454	169.01645	571.38019	-185.76868	-136.20529	517.14178	658.04913	10.61668	516.59821	684.26648	
2636	26.350	-174.52127	40.80167	-176.24136	250.87001	30.66397	-103.67369	-282.17581	-13.72852	440.03452	146.09682	-15.09380	451.05264	-11.82338	701.71082	-806.06049	15.04414	567.37720	-211.04385	168.36555	571.82526	-185.69646	-136.50867	516.53442	658.20410	10.14943	516.24518	684.29425	
2637	26.360	-175.22684	40.31559	-176.29143	250.00218	30.32756	-103.97917	-282.67767	-13.49412	439.99088	144.86545	-14.87029	451.02292	-11.82997	702.41400	-805.96149	14.22412	567.75342	-210.91817	168.01350	572.28668	-185.45773	-137.07268	515.94946	658.21887	9.71794	515.69714	684.39185	
2638	26.370	-176.06349	40.01780	-176.33562	248.89886	30.10717	-104.33624	-283.97858	-12.84638	439.82721	143.85760	-14.65137	450.80457	-11.92103	703.16901	-805.79565	13.32813	568.32855	-210.90984	166.85435	572.71747	-185.44307	-137.45645	515.37939	658.42688	9.39575	514.81604	684.55286	
